<?xml version="1.0" encoding="UTF-8"?><svg xmlns="http://www.w3.org/2000/svg" xmlns:xlink="http://www.w3.org/1999/xlink" viewBox="0 0 780 450"><defs><style>.g{fill:#15ffff;}.g,.h{mix-blend-mode:soft-light;}.g,.h,.i{opacity:.5;}.j{fill:url(#c);}.k{isolation:isolate;}.l{fill:#434a61;}.m{fill:#343b54;}.n{fill:url(#f);}.o{fill:#62687b;}.p{fill:url(#b);}.i,.q{fill:#742f6b;mix-blend-mode:multiply;}.r{fill:url(#d);}.q{opacity:.3;}.s{fill:url(#e);}.t{fill:#150e20;}.u{fill:#969aa7;}</style><linearGradient id="b" x1="372.19" y1="448.3" x2="372.19" y2="17.37" gradientTransform="translate(17.07 -17.07)" gradientUnits="userSpaceOnUse"><stop offset="0" stop-color="#ff4fc7"/><stop offset="1" stop-color="#ff19a7"/></linearGradient><linearGradient id="c" x1="188.98" y1="467.07" x2="188.98" y2="17.07" gradientTransform="translate(17.07 -17.07)" gradientUnits="userSpaceOnUse"><stop offset="0" stop-color="#211732"/><stop offset="1" stop-color="#2a2a45"/></linearGradient><linearGradient id="d" x1="558.45" x2="558.45" y2="17.07" xlink:href="#c"/><linearGradient id="e" x1="735.44" y1="348.8" x2="735.44" y2="157.65" xlink:href="#c"/><linearGradient id="f" x1="1024.8" y1="348.8" x2="1024.8" y2="157.65" gradientTransform="translate(1052.05 -17.07) rotate(-180) scale(1 -1)" xlink:href="#c"/></defs><g class="k"><g id="a"><g><path class="p" d="M710.57,12.6L525.67,.3,76.31,.53,30.99,67.01l-7.79,298.32,50.34,65.9s611.06-.23,615.85,0c5.02,0,65.93-60.41,65.93-72.25V87.51c0-6.47-32.73-74.22-44.74-74.91Zm23.32,337.9c0,5.05-34.81,42.64-34.81,42.64,0,0-121.75-.8-125.62,0-3.81,.86-28.98,30.18-31.17,31.27-2.19,1.09-153.04,0-153.04,0,0,0-150.84,1.09-153.04,0-2.19-1.09-27.36-30.41-31.17-31.27-3.87-.8-125.62,0-125.62,0,0,0-34.81-37.59-34.81-42.64V163.08s.98-75.98,1.27-79.25c.29-3.27,40.76-63.07,42.89-63.07s22.98-1.09,27.07,0c4.1,1.09,17.26,26.4,21.88,26.4s150.15-.86,153.44,0c3.29,.8,17.2,10.04,17.2,10.04h161.76s13.91-9.24,17.2-10.04c3.29-.86,148.77,0,153.44,0s17.78-25.31,21.88-26.4c4.1-1.09,24.88,0,27.07,0s42.6,59.8,42.89,63.07c.29,3.27,1.27,79.25,1.27,79.25v187.42Z"/><path class="j" d="M395.26,431c-36.72,.17-61.83,.23-61.83,.23-6.75-.23-18.59,18.77-18.59,18.77H74.87c-1.73-1.91-58.02-57.47-58.02-64.57,.81-101.71,3.52-297.22,2.71-306C18.41,67.7,61.76,4.23,65.17,1.28c3.35-2.89,324.78,0,324.78,0,.06,0,.12,.06,.17,.12,5.37,2.2-.35,39.51-.35,39.51H192.92c-4.21,.52-18.82-25.01-25.34-26.86-6.47-1.79-95.66,1.1-97.91,1.85-2.25,.69-36.6,54.29-37.47,60.53-.81,6.18-3.64,271.69-.81,277.76,2.77,6.06,64.14,70.23,68.12,73.18,2.94,2.2,199.74,3.29,295.74,3.64Z"/><path class="r" d="M763.4,385.43c0,7.1-56.29,62.67-58.02,64.57h-239.98s-11.83-19-18.59-18.77c0,0-20.49-.06-51.55-.23,99.06-.46,282.64-1.56,285.53-3.64,3.93-2.95,65.29-67.11,68.12-73.18,2.77-6.06,0-271.58-.87-277.76-.87-6.24-35.21-59.84-37.47-60.53-2.25-.75-91.44-3.64-97.91-1.85-6.47,1.85-21.13,27.38-25.34,26.86h-197.55s-5.02-37.31,.35-39.51c.06-.06,.12-.12,.17-.12,0,0,321.43-2.89,324.78,0,3.41,2.95,46.76,66.42,45.6,78.15-.81,8.78,1.91,204.29,2.71,306Z"/><path class="s" d="M760.67,140.58s15.73,8.94,18.09,12.77c2.36,3.83,.79,163.06,0,166.34-.79,3.28-18.09,12.04-18.09,12.04v-59.46s-29.15-26.57-32.64-32.72c-5.46-9.65-1.81-84.74-1.81-84.74,0,0,30.77,25.17,32.34,25.9,1.57,.73,2.1-40.13,2.1-40.13Z"/><path class="n" d="M19.33,140.58s-15.73,8.94-18.09,12.77c-2.36,3.83-.79,163.06,0,166.34,.79,3.28,18.09,12.04,18.09,12.04v-59.46s29.16-26.57,32.64-32.72c5.46-9.65,.39-84.74,.39-84.74,0,0-29.36,25.17-30.93,25.9-1.57,.73-2.1-40.13-2.1-40.13Z"/><path class="l" d="M67.75,.46s15.31,3.84,17.5,3.84,611.44,1.09,615.81,0c4.38-1.09,14.04-3.65,14.04-3.65,0,0-563.13-1.29-647.35-.19Z"/><path class="l" d="M20.95,179.56v-13.2l23.83-17.51,.11-8.26s7.35,12.37,7.47,14.23c.12,1.86-22.78,20.62-31.41,24.75Z"/><path class="l" d="M19.45,134.61S2.37,151.66,1.25,153.35c-1.13,1.69,18.2-5.98,18.2-5.98v-12.76Z"/><path class="l" d="M757.63,179.56v-13.2l-23.83-17.51-.11-8.26s-7.35,12.37-7.47,14.23c-.12,1.86,22.78,20.62,31.41,24.75Z"/><path class="l" d="M760.78,134.61s17.07,17.05,18.2,18.74c1.13,1.69-18.2-5.98-18.2-5.98v-12.76Z"/><path class="t" d="M167.58,14.05s29.79,21.31,35.8,24.08c6.02,2.78,363.99,.37,372.14-2.92,8.14-3.28,37.15-21.16,37.15-21.16,0,0-17.25,21.45-23.31,25.93-6.06,4.48-396.73,2.17-399.46,1.07s-22.31-27-22.31-27Z"/><path class="q" d="M434.18,4.79c-79.57,3.87,57.38,33.65,96.81,32.33,39.43-1.32,69.99-23.07,69.99-23.07,0,0-43.75-15.25-166.81-9.26Z"/><path class="l" d="M446.81,431.23s224.72-4.4,229.46-6.33c4.74-1.93,72.63-70.72,72.63-70.72,0,0-56.96,72.17-68.26,77.05-11.3,4.88-233.83,0-233.83,0Z"/><path class="l" d="M31.4,354.18s67.53,66.7,73,69.16c5.47,2.46,226.96,7.37,226.96,7.37,0,0-221.95,.94-231.84-3.36-9.89-4.29-68.12-73.18-68.12-73.18Z"/><g><path class="i" d="M744.25,230.78c-7.34-10.55-5.76-32.89,.94-36.48,6.7-3.59,18.66,23.95,20.33,34.6,1.66,10.64-17.21,7.73-21.27,1.88Z"/><path class="i" d="M745.15,231.82c-3.72-4.86-6.58-28.27,.29-32.8,6.86-4.53,14.36,12.57,14.36,12.57,0,0-7.48-18.41-13.92-17.54s-6.63,16.11-6.07,23.94,5.34,13.83,5.34,13.83Z"/><path class="m" d="M747.02,233.21s8.67,2.48,13.36,0c4.69-2.48,4.69-6.61,4.69-6.61,0,0,1.4,5.66-.53,9.42-1.93,3.77-14.99-.36-17.51-2.82Z"/></g><path class="o" d="M171.71,.02s36.05,4.92,69.41,6.38c33.36,1.46,82.95-1.75,82.95-1.75L171.71,.02Z"/><path class="o" d="M579.65,433.25s44.03-4.04,59.34-6.56c15.31-2.52,41.65,4.55,41.65,4.55,0,0-51.77,4.81-100.99,2.02Z"/><path class="o" d="M29.42,174.28s4.56-11.55,8.39-14.21c3.83-2.66,11.75-1.98,11.75-1.98,0,0-11.67,10.91-20.14,16.19Z"/><path class="o" d="M96.86,424.9s5.48-.77,13.14,0c7.66,.77,17.09,4.44,17.09,4.44,0,0-26.13,.81-30.22-4.44Z"/><path class="i" d="M739.41,252.13s35.22,30.86,37.13,34.69c1.91,3.83-.63,35.9-.63,35.9l-13.01,9.01,.5,44.55s-10.02-40.22-10.88-57.45c-.86-17.24-1.96-52.26-1.96-52.26l-11.15-14.45Z"/><path class="i" d="M39.88,252.13S4.66,282.99,2.75,286.82c-1.91,3.83,.63,35.9,.63,35.9l13.01,9.01-.5,44.55s10.02-40.22,10.88-57.45c.86-17.24,1.96-52.26,1.96-52.26l11.15-14.45Z"/><path class="g" d="M548.3,424.56s15.68-20.55,47.76-24.57c32.09-4.01,105,0,105,0,0,0-22.91,18.95-36.46,22.62-13.55,3.67-116.31,1.95-116.31,1.95Z"/><path class="g" d="M86.71,396.35s111.44,1.46,119.34,7.3c7.9,5.84,17.38,18.24,17.38,18.24,0,0-104.1-1.09-114.12-1.82-10.02-.74-22.61-23.71-22.61-23.71Z"/><g class="h"><path class="u" d="M487.04,376.28c-59.07-26.26,81.31-193.17,143.11-202.01,61.8-8.84,112.84,135.63,70.92,179.9-41.92,44.28-214.02,22.1-214.02,22.1Z"/><path class="u" d="M571.06,153.59c-17.71,61.98,45.05,24.15,78.59-13.01,33.54-37.16-60.2-51.36-78.59,13.01Z"/><path class="u" d="M122.44,74.88c-42.33,25.28,15.31,82.19,166.99,78.72,151.67-3.48-59.62-142.83-166.99-78.72Z"/><path class="u" d="M376.93,74.88c-30.11,8.15-8.93,18.58,14.49,12.62,23.42-5.96-5.58-15.03-14.49-12.62Z"/><path class="u" d="M111.98,320.84c-28.74,29.03,62.97,58.08,122.76,36.33,59.79-21.74-96.04-63.33-122.76-36.33Z"/><path class="u" d="M6.5,273.41C.17,253.71,45.72,191.7,52.36,190.24c6.64-1.46-1.95,38.8-7.22,50.34-5.27,11.54-38.65,32.83-38.65,32.83Z"/><path class="u" d="M207.21,37.16c-6.56-7.78,75.38-26.39,116.85-26.11,41.47,.27,20.69,21.29-24.98,26.11-45.66,4.82-91.88,0-91.88,0Z"/><path class="u" d="M217.06,15.42c-7.46,10.36,20.51,3.56,32.27-.27,11.76-3.83-18.87-18.33-32.27,.27Z"/><path class="u" d="M765.55,161.24c-4.52-1.91-7.29,25.72,.07,49.79,7.36,24.08,12.56-34.75,10.37-43.5-2.19-8.75-10.44-6.29-10.44-6.29Z"/></g></g></g></g></svg>